<mxfile host="app.diagrams.net" modified="2024-02-21T07:56:20.295Z" agent="Mozilla/5.0 (Windows NT 10.0; Win64; x64) AppleWebKit/537.36 (KHTML, like Gecko) Chrome/111.0.0.0 Safari/537.36" etag="k54Xt7h2w3_L0Adkop31" version="23.1.5" type="github">
  <diagram id="C5RBs43oDa-KdzZeNtuy" name="Page-1">
    <mxGraphModel dx="625" dy="1911" grid="1" gridSize="10" guides="1" tooltips="1" connect="1" arrows="1" fold="1" page="1" pageScale="1" pageWidth="827" pageHeight="1169" math="0" shadow="0">
      <root>
        <mxCell id="WIyWlLk6GJQsqaUBKTNV-0" />
        <mxCell id="WIyWlLk6GJQsqaUBKTNV-1" parent="WIyWlLk6GJQsqaUBKTNV-0" />
        <mxCell id="jFERRLt0U-ceiTPz3YiU-5" value="" style="edgeStyle=none;curved=1;rounded=0;orthogonalLoop=1;jettySize=auto;html=1;fontSize=12;startSize=8;endSize=8;" edge="1" parent="WIyWlLk6GJQsqaUBKTNV-1" source="jFERRLt0U-ceiTPz3YiU-0" target="jFERRLt0U-ceiTPz3YiU-2">
          <mxGeometry relative="1" as="geometry" />
        </mxCell>
        <mxCell id="jFERRLt0U-ceiTPz3YiU-0" value="" style="verticalLabelPosition=bottom;aspect=fixed;html=1;shape=mxgraph.salesforce.web;" vertex="1" parent="WIyWlLk6GJQsqaUBKTNV-1">
          <mxGeometry x="90" y="240" width="60" height="47.400000000000006" as="geometry" />
        </mxCell>
        <mxCell id="jFERRLt0U-ceiTPz3YiU-1" value="" style="verticalLabelPosition=bottom;aspect=fixed;html=1;shape=mxgraph.salesforce.data;" vertex="1" parent="WIyWlLk6GJQsqaUBKTNV-1">
          <mxGeometry x="530" y="234" width="48.6" height="60" as="geometry" />
        </mxCell>
        <mxCell id="jFERRLt0U-ceiTPz3YiU-6" value="" style="edgeStyle=none;curved=1;rounded=0;orthogonalLoop=1;jettySize=auto;html=1;fontSize=12;startSize=8;endSize=8;" edge="1" parent="WIyWlLk6GJQsqaUBKTNV-1" source="jFERRLt0U-ceiTPz3YiU-2" target="jFERRLt0U-ceiTPz3YiU-4">
          <mxGeometry relative="1" as="geometry" />
        </mxCell>
        <mxCell id="jFERRLt0U-ceiTPz3YiU-7" value="" style="edgeStyle=none;curved=1;rounded=0;orthogonalLoop=1;jettySize=auto;html=1;fontSize=12;startSize=8;endSize=8;" edge="1" parent="WIyWlLk6GJQsqaUBKTNV-1" source="jFERRLt0U-ceiTPz3YiU-2" target="jFERRLt0U-ceiTPz3YiU-4">
          <mxGeometry relative="1" as="geometry" />
        </mxCell>
        <mxCell id="jFERRLt0U-ceiTPz3YiU-8" value="" style="edgeStyle=none;curved=1;rounded=0;orthogonalLoop=1;jettySize=auto;html=1;fontSize=12;startSize=8;endSize=8;" edge="1" parent="WIyWlLk6GJQsqaUBKTNV-1" source="jFERRLt0U-ceiTPz3YiU-2" target="jFERRLt0U-ceiTPz3YiU-4">
          <mxGeometry relative="1" as="geometry" />
        </mxCell>
        <mxCell id="jFERRLt0U-ceiTPz3YiU-2" value="" style="image;aspect=fixed;html=1;points=[];align=center;fontSize=12;image=img/lib/azure2/networking/Route_Filters.svg;" vertex="1" parent="WIyWlLk6GJQsqaUBKTNV-1">
          <mxGeometry x="220" y="241.7" width="71" height="44" as="geometry" />
        </mxCell>
        <mxCell id="jFERRLt0U-ceiTPz3YiU-3" value="" style="image;aspect=fixed;html=1;points=[];align=center;fontSize=12;image=img/lib/azure2/app_services/App_Service_Plans.svg;" vertex="1" parent="WIyWlLk6GJQsqaUBKTNV-1">
          <mxGeometry x="380" y="190" width="64" height="64" as="geometry" />
        </mxCell>
        <mxCell id="jFERRLt0U-ceiTPz3YiU-4" value="" style="image;aspect=fixed;html=1;points=[];align=center;fontSize=12;image=img/lib/azure2/app_services/App_Service_Plans.svg;" vertex="1" parent="WIyWlLk6GJQsqaUBKTNV-1">
          <mxGeometry x="382" y="286" width="64" height="64" as="geometry" />
        </mxCell>
        <mxCell id="jFERRLt0U-ceiTPz3YiU-9" style="edgeStyle=none;curved=1;rounded=0;orthogonalLoop=1;jettySize=auto;html=1;entryX=0;entryY=0.313;entryDx=0;entryDy=0;entryPerimeter=0;fontSize=12;startSize=8;endSize=8;" edge="1" parent="WIyWlLk6GJQsqaUBKTNV-1" source="jFERRLt0U-ceiTPz3YiU-2" target="jFERRLt0U-ceiTPz3YiU-3">
          <mxGeometry relative="1" as="geometry" />
        </mxCell>
        <mxCell id="jFERRLt0U-ceiTPz3YiU-10" style="edgeStyle=none;curved=1;rounded=0;orthogonalLoop=1;jettySize=auto;html=1;fontSize=12;startSize=8;endSize=8;entryX=0.07;entryY=0.526;entryDx=0;entryDy=0;entryPerimeter=0;" edge="1" parent="WIyWlLk6GJQsqaUBKTNV-1" source="jFERRLt0U-ceiTPz3YiU-3" target="jFERRLt0U-ceiTPz3YiU-1">
          <mxGeometry relative="1" as="geometry">
            <mxPoint x="530" y="270" as="targetPoint" />
          </mxGeometry>
        </mxCell>
        <mxCell id="jFERRLt0U-ceiTPz3YiU-11" style="edgeStyle=none;curved=1;rounded=0;orthogonalLoop=1;jettySize=auto;html=1;entryX=0.079;entryY=0.586;entryDx=0;entryDy=0;entryPerimeter=0;fontSize=12;startSize=8;endSize=8;" edge="1" parent="WIyWlLk6GJQsqaUBKTNV-1" source="jFERRLt0U-ceiTPz3YiU-4" target="jFERRLt0U-ceiTPz3YiU-1">
          <mxGeometry relative="1" as="geometry" />
        </mxCell>
        <mxCell id="jFERRLt0U-ceiTPz3YiU-12" value="" style="edgeStyle=none;curved=1;rounded=0;orthogonalLoop=1;jettySize=auto;html=1;fontSize=12;startSize=8;endSize=8;" edge="1" parent="WIyWlLk6GJQsqaUBKTNV-1" source="jFERRLt0U-ceiTPz3YiU-13" target="jFERRLt0U-ceiTPz3YiU-18">
          <mxGeometry relative="1" as="geometry" />
        </mxCell>
        <mxCell id="jFERRLt0U-ceiTPz3YiU-13" value="" style="verticalLabelPosition=bottom;aspect=fixed;html=1;shape=mxgraph.salesforce.web;" vertex="1" parent="WIyWlLk6GJQsqaUBKTNV-1">
          <mxGeometry x="88" y="-2" width="60" height="47.400000000000006" as="geometry" />
        </mxCell>
        <mxCell id="jFERRLt0U-ceiTPz3YiU-14" value="" style="verticalLabelPosition=bottom;aspect=fixed;html=1;shape=mxgraph.salesforce.data;" vertex="1" parent="WIyWlLk6GJQsqaUBKTNV-1">
          <mxGeometry x="530" y="-8.3" width="48.6" height="60" as="geometry" />
        </mxCell>
        <mxCell id="jFERRLt0U-ceiTPz3YiU-18" value="" style="image;aspect=fixed;html=1;points=[];align=center;fontSize=12;image=img/lib/azure2/networking/Route_Filters.svg;" vertex="1" parent="WIyWlLk6GJQsqaUBKTNV-1">
          <mxGeometry x="218" y="-0.30000000000001137" width="71" height="44" as="geometry" />
        </mxCell>
        <mxCell id="jFERRLt0U-ceiTPz3YiU-19" value="" style="image;aspect=fixed;html=1;points=[];align=center;fontSize=12;image=img/lib/azure2/app_services/App_Service_Plans.svg;" vertex="1" parent="WIyWlLk6GJQsqaUBKTNV-1">
          <mxGeometry x="382" y="-12" width="64" height="64" as="geometry" />
        </mxCell>
        <mxCell id="jFERRLt0U-ceiTPz3YiU-21" style="edgeStyle=none;curved=1;rounded=0;orthogonalLoop=1;jettySize=auto;html=1;entryX=-0.013;entryY=0.524;entryDx=0;entryDy=0;entryPerimeter=0;fontSize=12;startSize=8;endSize=8;" edge="1" parent="WIyWlLk6GJQsqaUBKTNV-1" source="jFERRLt0U-ceiTPz3YiU-18" target="jFERRLt0U-ceiTPz3YiU-19">
          <mxGeometry relative="1" as="geometry" />
        </mxCell>
        <mxCell id="jFERRLt0U-ceiTPz3YiU-22" style="edgeStyle=none;curved=1;rounded=0;orthogonalLoop=1;jettySize=auto;html=1;fontSize=12;startSize=8;endSize=8;" edge="1" parent="WIyWlLk6GJQsqaUBKTNV-1" source="jFERRLt0U-ceiTPz3YiU-19">
          <mxGeometry relative="1" as="geometry">
            <mxPoint x="530" y="20" as="targetPoint" />
          </mxGeometry>
        </mxCell>
        <mxCell id="jFERRLt0U-ceiTPz3YiU-24" value="" style="edgeStyle=none;curved=1;rounded=0;orthogonalLoop=1;jettySize=auto;html=1;fontSize=12;startSize=8;endSize=8;" edge="1" parent="WIyWlLk6GJQsqaUBKTNV-1" source="jFERRLt0U-ceiTPz3YiU-25" target="jFERRLt0U-ceiTPz3YiU-30">
          <mxGeometry relative="1" as="geometry" />
        </mxCell>
        <mxCell id="jFERRLt0U-ceiTPz3YiU-25" value="" style="verticalLabelPosition=bottom;aspect=fixed;html=1;shape=mxgraph.salesforce.web;" vertex="1" parent="WIyWlLk6GJQsqaUBKTNV-1">
          <mxGeometry x="90" y="470" width="60" height="47.400000000000006" as="geometry" />
        </mxCell>
        <mxCell id="jFERRLt0U-ceiTPz3YiU-26" value="" style="verticalLabelPosition=bottom;aspect=fixed;html=1;shape=mxgraph.salesforce.data;" vertex="1" parent="WIyWlLk6GJQsqaUBKTNV-1">
          <mxGeometry x="530" y="411.7" width="48.6" height="60" as="geometry" />
        </mxCell>
        <mxCell id="jFERRLt0U-ceiTPz3YiU-27" value="" style="edgeStyle=none;curved=1;rounded=0;orthogonalLoop=1;jettySize=auto;html=1;fontSize=12;startSize=8;endSize=8;" edge="1" parent="WIyWlLk6GJQsqaUBKTNV-1" source="jFERRLt0U-ceiTPz3YiU-30" target="jFERRLt0U-ceiTPz3YiU-32">
          <mxGeometry relative="1" as="geometry" />
        </mxCell>
        <mxCell id="jFERRLt0U-ceiTPz3YiU-28" value="" style="edgeStyle=none;curved=1;rounded=0;orthogonalLoop=1;jettySize=auto;html=1;fontSize=12;startSize=8;endSize=8;" edge="1" parent="WIyWlLk6GJQsqaUBKTNV-1" source="jFERRLt0U-ceiTPz3YiU-30" target="jFERRLt0U-ceiTPz3YiU-32">
          <mxGeometry relative="1" as="geometry" />
        </mxCell>
        <mxCell id="jFERRLt0U-ceiTPz3YiU-29" value="" style="edgeStyle=none;curved=1;rounded=0;orthogonalLoop=1;jettySize=auto;html=1;fontSize=12;startSize=8;endSize=8;" edge="1" parent="WIyWlLk6GJQsqaUBKTNV-1" source="jFERRLt0U-ceiTPz3YiU-30" target="jFERRLt0U-ceiTPz3YiU-32">
          <mxGeometry relative="1" as="geometry" />
        </mxCell>
        <mxCell id="jFERRLt0U-ceiTPz3YiU-30" value="" style="image;aspect=fixed;html=1;points=[];align=center;fontSize=12;image=img/lib/azure2/networking/Route_Filters.svg;" vertex="1" parent="WIyWlLk6GJQsqaUBKTNV-1">
          <mxGeometry x="220" y="471.7" width="71" height="44" as="geometry" />
        </mxCell>
        <mxCell id="jFERRLt0U-ceiTPz3YiU-31" value="" style="image;aspect=fixed;html=1;points=[];align=center;fontSize=12;image=img/lib/azure2/app_services/App_Service_Plans.svg;" vertex="1" parent="WIyWlLk6GJQsqaUBKTNV-1">
          <mxGeometry x="380" y="420" width="64" height="64" as="geometry" />
        </mxCell>
        <mxCell id="jFERRLt0U-ceiTPz3YiU-32" value="" style="image;aspect=fixed;html=1;points=[];align=center;fontSize=12;image=img/lib/azure2/app_services/App_Service_Plans.svg;" vertex="1" parent="WIyWlLk6GJQsqaUBKTNV-1">
          <mxGeometry x="382" y="516" width="64" height="64" as="geometry" />
        </mxCell>
        <mxCell id="jFERRLt0U-ceiTPz3YiU-33" style="edgeStyle=none;curved=1;rounded=0;orthogonalLoop=1;jettySize=auto;html=1;entryX=0;entryY=0.313;entryDx=0;entryDy=0;entryPerimeter=0;fontSize=12;startSize=8;endSize=8;" edge="1" parent="WIyWlLk6GJQsqaUBKTNV-1" source="jFERRLt0U-ceiTPz3YiU-30" target="jFERRLt0U-ceiTPz3YiU-31">
          <mxGeometry relative="1" as="geometry" />
        </mxCell>
        <mxCell id="jFERRLt0U-ceiTPz3YiU-34" style="edgeStyle=none;curved=1;rounded=0;orthogonalLoop=1;jettySize=auto;html=1;fontSize=12;startSize=8;endSize=8;entryX=-0.071;entryY=0.619;entryDx=0;entryDy=0;entryPerimeter=0;" edge="1" parent="WIyWlLk6GJQsqaUBKTNV-1" target="jFERRLt0U-ceiTPz3YiU-26">
          <mxGeometry relative="1" as="geometry">
            <mxPoint x="510" y="460" as="targetPoint" />
            <mxPoint x="450" y="500" as="sourcePoint" />
          </mxGeometry>
        </mxCell>
        <mxCell id="jFERRLt0U-ceiTPz3YiU-42" value="写" style="edgeLabel;html=1;align=center;verticalAlign=middle;resizable=0;points=[];fontSize=12;" vertex="1" connectable="0" parent="jFERRLt0U-ceiTPz3YiU-34">
          <mxGeometry x="0.0298" y="-1" relative="1" as="geometry">
            <mxPoint as="offset" />
          </mxGeometry>
        </mxCell>
        <mxCell id="jFERRLt0U-ceiTPz3YiU-35" style="edgeStyle=none;curved=1;rounded=0;orthogonalLoop=1;jettySize=auto;html=1;entryX=-0.071;entryY=0.283;entryDx=0;entryDy=0;entryPerimeter=0;fontSize=12;startSize=8;endSize=8;" edge="1" parent="WIyWlLk6GJQsqaUBKTNV-1" target="jFERRLt0U-ceiTPz3YiU-36">
          <mxGeometry relative="1" as="geometry">
            <mxPoint x="450" y="500" as="sourcePoint" />
          </mxGeometry>
        </mxCell>
        <mxCell id="jFERRLt0U-ceiTPz3YiU-43" value="读" style="edgeLabel;html=1;align=center;verticalAlign=middle;resizable=0;points=[];fontSize=12;" vertex="1" connectable="0" parent="jFERRLt0U-ceiTPz3YiU-35">
          <mxGeometry x="0.0737" relative="1" as="geometry">
            <mxPoint as="offset" />
          </mxGeometry>
        </mxCell>
        <mxCell id="jFERRLt0U-ceiTPz3YiU-36" value="" style="verticalLabelPosition=bottom;aspect=fixed;html=1;shape=mxgraph.salesforce.data;" vertex="1" parent="WIyWlLk6GJQsqaUBKTNV-1">
          <mxGeometry x="530" y="530" width="48.6" height="60" as="geometry" />
        </mxCell>
        <mxCell id="jFERRLt0U-ceiTPz3YiU-37" style="edgeStyle=none;curved=1;rounded=0;orthogonalLoop=1;jettySize=auto;html=1;entryX=0.511;entryY=0.003;entryDx=0;entryDy=0;entryPerimeter=0;fontSize=12;startSize=8;endSize=8;" edge="1" parent="WIyWlLk6GJQsqaUBKTNV-1" source="jFERRLt0U-ceiTPz3YiU-26" target="jFERRLt0U-ceiTPz3YiU-36">
          <mxGeometry relative="1" as="geometry" />
        </mxCell>
        <mxCell id="jFERRLt0U-ceiTPz3YiU-44" value="sync" style="edgeLabel;html=1;align=center;verticalAlign=middle;resizable=0;points=[];fontSize=12;" vertex="1" connectable="0" parent="jFERRLt0U-ceiTPz3YiU-37">
          <mxGeometry x="-0.0852" y="-2" relative="1" as="geometry">
            <mxPoint as="offset" />
          </mxGeometry>
        </mxCell>
        <mxCell id="jFERRLt0U-ceiTPz3YiU-40" value="主库" style="text;html=1;align=center;verticalAlign=middle;whiteSpace=wrap;rounded=0;fontSize=16;" vertex="1" parent="WIyWlLk6GJQsqaUBKTNV-1">
          <mxGeometry x="524.3" y="381.7" width="60" height="30" as="geometry" />
        </mxCell>
        <mxCell id="jFERRLt0U-ceiTPz3YiU-41" value="读库" style="text;html=1;align=center;verticalAlign=middle;whiteSpace=wrap;rounded=0;fontSize=16;" vertex="1" parent="WIyWlLk6GJQsqaUBKTNV-1">
          <mxGeometry x="524.3" y="590" width="60" height="30" as="geometry" />
        </mxCell>
      </root>
    </mxGraphModel>
  </diagram>
</mxfile>
